# xmcd
#
# Track frame offsets:
#	150
#	17759
#	33378
#	49504
#	68447
#	86255
#	99972
#	112252
#	127218
#	139817
#	159207
#	175591
#	192349
#	207857
#	222862
#	240171
#	262274
#	275990
#	295553
#	309063
#	325120
#	337434
#	339911
#	343131
#	345575
#	347266
#	349136
#
# Disc length: 4695 seconds
#
# Revision: 1
# Processed by: cddbd v1.5.2PL0 Copyright (c) Steve Scherf et al.
# Submitted via: audiograbber 1.83.01
#
DISCID=9012551b
DTITLE=Country Hotdisc - Country Hotdisc 113
DYEAR=2008
DGENRE=Country
TTITLE0=Daddy´s School  - Brianie
TTITLE1=Everything And More  - Michelle Wright
TTITLE2=50 Miles - Oneday 40
TTITLE3=Amy  - Dave Aspen
TTITLE4=Southern Summer Noghts  - Richard Frankz
TTITLE5=Cryin´ Kind Of Man  - Julie Richardson
TTITLE6=Pappa Come Quick  - The Wilkinsons
TTITLE7=I´ll Never Find Another You - Paula Macaskill
TTITLE8=Loving Arms  - Stu Stevens
TTITLE9=Torn Between Two Lovers - Jackie Storrar
TTITLE10=Mother´s Birthsday Song  - Daniel O´donnell
TTITLE11=Promise Me  - Mary Duff
TTITLE12=Rainmaker  - Katy Kiefer
TTITLE13=Grab Your Beer  - Marchall Petrone 
TTITLE14=When I Dream  - George Hamilton V
TTITLE15=Lonely Street  - Houston Wells
TTITLE16=Ain´t It Beatiful - Lucas
TTITLE17=Are You Still In Love With Me - Ann Murray
TTITLE18=Lullaby  - Dan Seals and Emmylou Harris
TTITLE19=Why Don´t You Spend The Night  - Ronnie Milsap
TTITLE20=She´s Ready For Someone To Love Her  - Osmonds
TTITLE21=Soundbite  - Oneday 40
TTITLE22=Soundbite  - Oneday 40
TTITLE23=Soundbite  - Oneday 40
TTITLE24=Soundbite  - Oneday 40
TTITLE25=Jingle  - Oneday 40
TTITLE26=Soundbite  - Jackie Storrar
EXTD=
EXTT0=
EXTT1=
EXTT2=
EXTT3=
EXTT4=
EXTT5=
EXTT6=
EXTT7=
EXTT8=
EXTT9=
EXTT10=
EXTT11=
EXTT12=
EXTT13=
EXTT14=
EXTT15=
EXTT16=
EXTT17=
EXTT18=
EXTT19=
EXTT20=
EXTT21=
EXTT22=
EXTT23=
EXTT24=
EXTT25=
EXTT26=
PLAYORDER=
